<?xml version="1.0" encoding="iso-8859-1"?>
<!-- Generator: Adobe Illustrator 19.0.0, SVG Export Plug-In . SVG Version: 6.00 Build 0)  -->
<svg version="1.1" id="Capa_1" xmlns="http://www.w3.org/2000/svg" xmlns:xlink="http://www.w3.org/1999/xlink" x="0px" y="0px"
	 viewBox="0 0 456 456" style="enable-background:new 0 0 456 456;" xml:space="preserve">
<g>
	<g>
		<path d="M240,45.687c-106.039,0-192,85.961-192,192s85.961,192,192,192c105.987-0.123,191.877-86.013,192-192
			C432,131.648,346.039,45.687,240,45.687z M240,413.687c-97.202,0-176-78.798-176-176s78.798-176,176-176
			c97.156,0.11,175.89,78.844,176,176C416,334.889,337.202,413.687,240,413.687z"/>
	</g>
</g>
<g>
	<g>
		<path d="M369.944,264.887l-45.256-45.264c-3.124-3.123-8.188-3.123-11.312,0l-84.856,84.856c-3.123,3.124-3.123,8.188,0,11.312
			l45.256,45.248c1.5,1.5,3.534,2.344,5.656,2.344c2.122,0,4.156-0.844,5.656-2.344l84.856-84.832
			c0.002-0.002,0.004-0.004,0.006-0.006C373.073,273.074,373.07,268.009,369.944,264.887z M279.432,344.087l-33.944-33.952
			l73.544-73.584l33.944,33.936L279.432,344.087z"/>
	</g>
</g>
<g>
	<g>
		<path d="M388.976,206.154c-1.163-4.262-5.562-6.775-9.824-5.612l-62.224,16.976c-1.344,0.366-2.569,1.077-3.554,2.062
			c-3.124,3.125-3.123,8.19,0.002,11.314l45.256,45.256c1.501,1.497,3.536,2.338,5.656,2.336c0.691,0.006,1.38-0.08,2.048-0.256
			c2.749-0.727,4.906-2.859,5.664-5.6l16.976-62.264C389.352,208.988,389.352,207.533,388.976,206.154z M360.16,255.127
			l-25.76-25.76l35.416-9.656L360.16,255.127z"/>
	</g>
</g>
<g>
	<g>
		<rect x="308.184" y="251.051" transform="matrix(0.7071 -0.7071 0.7071 0.7071 -104.7118 305.2872)" width="16" height="56"/>
	</g>
</g>
<g>
	<g>
		<rect x="271.449" y="279.521" transform="matrix(0.7072 -0.707 0.707 0.7072 -121.4586 281.7432)" width="16" height="16"/>
	</g>
</g>
<g>
	<g>
		<rect x="294.084" y="302.178" transform="matrix(0.7071 -0.7071 0.7071 0.7071 -130.8504 304.4546)" width="16" height="16"/>
	</g>
</g>
<g>
	<g>
		<path d="M328,298.823v53.264l-20.288,20.272L217.2,281.847l20.288-20.288h53.256v-16h-56.568c-2.122,0-4.156,0.844-5.656,2.344
			l-28.288,28.288c-3.123,3.124-3.123,8.188,0,11.312l101.824,101.824c1.5,1.5,3.534,2.344,5.656,2.344
			c2.122,0,4.156-0.844,5.656-2.344l28.288-28.288c1.5-1.5,2.344-3.534,2.344-5.656v-56.56H328z"/>
	</g>
</g>
<g>
	<g>
		<path d="M273.96,349.535c-17.23,16.488-35.718,31.608-55.296,45.224l8,13.856c20.376-11.728,56.744-45.984,58.28-47.432
			L273.96,349.535z"/>
	</g>
</g>
<g>
	<g>
		<path d="M228.464,304.519c-16.174,16.331-33.852,31.1-52.8,44.112l8.672,13.456c19.977-13.628,38.589-29.157,55.576-46.368
			L228.464,304.519z"/>
	</g>
</g>
<g>
	<g>
		<path d="M256.992,332.559c-8.361,7.922-17.356,15.146-26.896,21.6l8.216,13.712c10.557-7.024,20.49-14.944,29.688-23.672
			L256.992,332.559z"/>
	</g>
</g>
<g>
	<g>
		<path d="M426.672,47.023c-21.728-21.736-64.496-17.632-120.368,11.528l7.4,14.192c47.744-24.92,85.744-30.32,101.656-14.4
			c18.576,18.576,8.224,66.072-27.024,123.936L402,190.607C442.48,124.159,451.472,71.831,426.672,47.023z"/>
	</g>
</g>
<g>
	<g>
		<path d="M194.296,378.503C133.672,416.695,84,428.431,64.648,409.071c-15.328-15.32-11.2-50.088,11.2-95.384l-14.336-7.112
			c-26.064,52.616-28.984,93.008-8.184,113.808c10.407,9.646,24.289,14.645,38.456,13.848c28.528,0,66.752-14.296,111.04-42.2
			L194.296,378.503z"/>
	</g>
</g>
<g>
	<g>
		<path d="M404.048,69.687c-4.532-3.28-10.089-4.826-15.664-4.36c-16.711,0.912-33.072,5.156-48.12,12.48l6.336,14.688
			c13.057-6.443,27.255-10.249,41.784-11.2c1.311-0.012,2.621,0.074,3.92,0.256c0.832,6.48-0.848,28.168-20.888,65.864l14.12,7.512
			C409.192,110.487,412.752,78.359,404.048,69.687z"/>
	</g>
</g>
<g>
	<g>
		<path d="M96.48,345.855l-14.88-5.888c-10.936,27.592-13.16,50.272-5.664,57.768c4.53,3.299,10.096,4.855,15.68,4.384v-16.008
			c-1.29,0.011-2.579-0.075-3.856-0.256C87.593,372.032,90.575,358.353,96.48,345.855z"/>
	</g>
</g>
<g>
	<g>
		<path d="M361,165.631c-3.093,5.093-6.36,10.208-9.8,15.344l13.304,8.888c3.568-5.339,6.955-10.64,10.16-15.904L361,165.631z"/>
	</g>
</g>
<g>
	<g>
		<path d="M243.088,53.687v31.448l-29.816,17.672c-0.279,0.166-0.548,0.348-0.805,0.547c-3.497,2.7-4.143,7.724-1.443,11.221
			l20.664,26.736l-4.856,39.72l-84.192,38.544l-77.752-34.464L58.4,199.735l81.064,35.928c1.007,0.451,2.097,0.685,3.2,0.688
			c1.152,0.002,2.29-0.246,3.336-0.728l91.552-41.904c2.527-1.158,4.271-3.545,4.608-6.304l5.8-47.424
			c0.252-2.086-0.323-4.188-1.6-5.856l-17.144-22.184l25.952-15.384c2.43-1.441,3.919-4.055,3.92-6.88v-36H243.088z"/>
	</g>
</g>
<g>
	<g>
		<path d="M172.144,303.575l-44.488-31.112c-1.944-1.35-4.383-1.78-6.672-1.176l-31.456,8.496c-3.491,0.944-5.914,4.112-5.912,7.728
			v24.968l-9.688,9.688l11.32,11.336l12-12c1.5-1.5,2.344-3.534,2.344-5.656v-22.16l21.928-5.92l38.008,26.584v28.8l-22.4,4.392
			c-0.593,0.113-1.17,0.296-1.72,0.544l-29.496,13.12l6.52,14.616l28.664-12.8l28-5.488c3.751-0.738,6.455-4.026,6.456-7.848
			v-39.552C175.555,307.523,174.283,305.074,172.144,303.575z"/>
	</g>
</g>
<g>
	<g>
		<path d="M325.336,105.871H296.4c-2.69,0-5.2,1.353-6.68,3.6l-11.312,17.144c-1.648,2.5-1.762,5.71-0.296,8.32l9.832,17.52
			l-5.024,23.48c-0.117,0.55-0.177,1.11-0.177,1.673c0,4.418,3.582,8,8.001,7.999c1.272-0.004,2.524-0.308,3.656-0.888l28.32-14.584
			c1.952-1.017,3.399-2.794,4-4.912l6.304-22c0.204-0.716,0.309-1.456,0.312-2.2v-27.152
			C333.336,109.452,329.754,105.871,325.336,105.871z M317.336,139.943l-5.04,17.6l-10.192,5.248l2.12-9.904
			c0.41-1.908,0.108-3.899-0.848-5.6l-8.92-15.928l6.248-9.488h16.632V139.943z"/>
	</g>
</g>
<g>
	<g>
		<rect x="440" y="341.687" width="16" height="16"/>
	</g>
</g>
<g>
	<g>
		<path d="M40,21.687H24c0,13.255-10.745,24-24,24v16c13.255,0,24,10.745,24,24h16c0-13.255,10.745-24,24-24v-16
			C50.745,45.687,40,34.942,40,21.687z M32,61.687c-2.278-3.029-4.971-5.722-8-8c3.029-2.278,5.722-4.971,8-8
			c2.278,3.029,4.971,5.722,8,8C36.971,55.964,34.278,58.658,32,61.687z"/>
	</g>
</g>

</svg>
